<svg width="1220" height="1729" viewBox="0 0 1220 1729" fill="none" xmlns="http://www.w3.org/2000/svg">
<mask id="mask0_11_1352" style="mask-type:alpha" maskUnits="userSpaceOnUse" x="0" y="0" width="610" height="1729">
<rect width="610" height="1729" fill="#8F56E9"/>
</mask>
<g mask="url(#mask0_11_1352)">
<path d="M595.121 542.871C570.653 608.15 492.346 724.319 421.251 746.567C350.157 768.814 286.29 697.142 290.666 386.746C299.433 -234.026 349.836 242.858 435.357 76.7106C478.119 -6.37065 464.874 -15.7379 485.624 19.8435C495.997 37.6419 514.872 66.6859 553.483 103.373C592.094 140.06 650.454 184.409 739.797 232.832C895.189 317.023 871.258 361.893 802.352 402.03C733.445 442.167 619.574 477.588 595.106 542.868L595.121 542.871Z" stroke="#EBFFB4" stroke-width="4" stroke-miterlimit="10"/>
<path d="M309.102 383.418C320.295 -200.632 364.767 245.337 445.835 88.9729C486.304 10.8342 474.289 2.04701 494.456 35.3989C504.584 52.1718 522.775 79.5749 559.521 114.115C596.731 149.067 652.466 191.39 736.425 237.721C882.294 317.526 859.395 360.583 794.028 399.18C728.812 437.582 621.221 471.541 597.4 533.393C573.468 595.32 498.982 704.816 431.413 726C399.153 736.134 368.703 726.464 345.749 683.014C339.809 671.78 334.48 658.264 329.797 642.458C313.61 587.491 306.775 505.053 309.102 383.418Z" stroke="#EBFFB4" stroke-width="4" stroke-miterlimit="10"/>
<path d="M327.52 380.102C341.038 -167.198 379.695 247.831 456.306 101.266C494.468 28.0664 483.713 19.8655 503.266 50.9817C513.165 66.7322 530.668 92.5099 565.557 124.872C600.445 157.234 654.305 198.673 733.051 242.626C869.088 318.544 847.543 359.291 785.702 396.344C724.177 433.012 622.865 465.509 599.678 523.916C576.267 582.486 505.618 685.312 441.575 705.433C410.484 715.238 381.395 706.222 359.376 665.408C353.59 654.685 348.506 641.714 344.08 626.712C328.661 573.77 324.675 496.029 327.538 380.089L327.52 380.102Z" stroke="#EBFFB4" stroke-width="4" stroke-miterlimit="10"/>
<path d="M345.938 376.786C361.702 -133.764 394.623 250.325 466.766 113.54C502.635 45.2833 493.126 37.6656 512.081 66.5493C521.749 81.2774 538.554 105.411 571.593 135.629C605.987 167.092 656.222 205.811 729.677 247.53C856.03 319.303 835.681 357.981 777.364 393.491C719.514 428.42 624.497 459.459 601.958 514.438C579.083 569.656 512.255 665.808 451.719 684.879C421.796 694.371 394.057 685.974 372.982 647.83C367.339 637.599 362.462 625.198 358.342 610.993C343.577 560.087 342.535 487.045 345.941 376.77L345.938 376.786Z" stroke="#EBFFB4" stroke-width="4" stroke-miterlimit="10"/>
<path d="M401.191 366.837C422.898 -33.3454 439.388 257.82 498.153 150.397C527.112 96.9619 521.418 91.109 538.5 113.28C547.492 124.959 562.273 144.111 589.666 167.909C619.86 194.136 661.947 227.188 719.505 262.25C816.815 321.54 800.186 354.294 752.336 384.991C705.664 414.914 629.57 441.455 608.769 486.049C587.664 531.288 532.092 607.25 482.176 623.237C455.739 631.706 431.99 625.318 413.847 595.089C408.609 586.364 404.462 575.613 401.158 563.844C388.599 519.012 396.147 460.164 401.209 366.825L401.191 366.837Z" stroke="#EBFFB4" stroke-width="4" stroke-miterlimit="10"/>
<path d="M382.773 370.153C402.648 -66.8418 424.46 255.326 487.679 138.12C518.946 79.7451 511.957 73.3153 529.671 97.7093C538.892 110.411 554.336 131.232 583.615 157.149C615.208 185.127 660.012 220.063 722.88 257.345C829.883 320.815 812.025 355.567 760.662 387.827C710.287 419.465 627.899 447.465 606.478 495.508C584.821 544.097 525.487 626.84 472.002 643.785C444.416 652.635 419.335 645.535 400.208 612.677C394.831 603.444 390.44 592.148 386.878 579.575C373.583 532.723 378.275 469.13 382.773 370.153Z" stroke="#EBFFB4" stroke-width="4" stroke-miterlimit="10"/>
<path d="M364.356 373.469C382.247 -100.305 409.548 252.834 477.222 125.83C510.783 62.5124 502.535 55.4809 520.876 82.129C530.314 95.8346 546.454 118.315 577.595 146.395C610.587 176.123 658.123 212.946 726.269 252.443C842.953 320.074 823.879 356.843 769.004 390.665C714.928 424.004 626.239 453.494 604.215 504.988C581.994 556.908 518.869 646.331 461.859 664.34C433.106 673.503 406.696 665.754 386.587 630.252C381.083 620.529 376.451 608.673 372.601 595.29C358.569 546.419 360.403 478.095 364.356 373.469Z" stroke="#EBFFB4" stroke-width="4" stroke-miterlimit="10"/>
<path d="M419.608 363.521C442.954 0.160987 454.547 260.44 508.609 162.687C535.389 114.265 530.873 108.934 547.294 128.86C556.087 139.523 570.188 157.019 595.67 178.66C624.481 203.14 663.822 234.286 716.097 267.163C803.731 322.263 788.313 353.03 743.978 382.15C701.025 410.359 631.195 435.435 611.032 476.569C590.476 518.473 538.715 587.728 492.303 602.68C467.036 610.82 444.567 605.086 427.439 577.493C422.341 569.276 418.439 559.07 415.403 548.123C403.582 505.31 413.965 451.221 419.592 363.518L419.608 363.521Z" stroke="#EBFFB4" stroke-width="4" stroke-miterlimit="10"/>
<path d="M438.026 360.205C462.767 33.6827 469.503 262.956 519.068 174.961C543.556 131.482 540.35 126.731 556.108 144.427C564.702 154.074 578.113 169.88 601.706 189.417C629.152 212.137 665.73 241.39 712.723 272.068C790.673 322.941 776.474 351.757 735.652 379.315C696.387 405.804 632.87 429.409 613.308 467.106C593.3 505.676 545.348 568.239 502.462 582.128C478.35 589.937 457.17 584.89 441.075 559.92C436.102 552.209 432.456 542.566 429.696 532.41C418.611 491.617 431.813 442.298 438.041 360.208L438.026 360.205Z" stroke="#EBFFB4" stroke-width="4" stroke-miterlimit="10"/>
<path d="M456.444 356.888C482.318 67.2325 484.443 265.468 529.525 187.25C551.732 148.732 549.858 144.533 564.904 160.007C573.299 168.637 586.05 182.759 607.723 200.186C633.79 221.143 667.622 248.491 709.33 276.984C777.6 323.617 764.617 350.495 727.292 376.488C691.73 401.262 634.478 423.402 615.565 457.656C596.653 491.911 551.948 548.759 512.6 561.604C489.658 569.084 469.705 564.713 454.678 542.357C449.828 535.15 446.442 526.056 443.952 516.722C433.619 477.952 449.605 433.412 456.438 356.919L456.444 356.888Z" stroke="#EBFFB4" stroke-width="4" stroke-miterlimit="10"/>
<path d="M474.861 353.572C501.499 100.789 499.399 267.984 539.996 199.543C559.911 165.968 559.399 162.327 573.714 175.59C581.941 183.21 594.006 195.626 613.744 210.94C638.464 230.125 669.489 255.555 705.941 281.886C764.541 324.216 752.751 349.2 718.951 373.65C687.095 396.692 636.118 417.385 617.844 448.179C599.57 478.973 558.584 529.255 522.762 541.037C500.99 548.189 482.243 544.521 468.304 524.751C463.564 518.046 460.456 509.487 458.22 500.972C448.639 464.226 467.388 424.493 474.861 353.572Z" stroke="#EBFFB4" stroke-width="4" stroke-miterlimit="10"/>
<path d="M493.278 350.256C520.245 134.357 514.339 270.497 550.455 211.818C568.074 183.2 568.977 180.096 582.527 191.158C590.589 197.752 601.985 208.45 619.779 221.698C643.155 239.095 671.392 262.595 702.566 286.79C751.491 324.769 740.902 347.894 710.627 370.8C682.462 392.107 637.765 411.338 620.122 438.702C602.48 466.066 565.219 509.752 532.908 520.468C512.303 527.306 494.746 524.339 481.912 507.158C477.295 500.958 474.447 492.947 472.484 485.239C463.658 450.5 485.117 415.596 493.263 350.253L493.278 350.256Z" stroke="#EBFFB4" stroke-width="4" stroke-miterlimit="10"/>
<path d="M511.696 346.94C512.863 165.948 529.264 273.006 560.911 224.108C576.237 200.432 578.577 197.837 591.323 206.737C599.256 212.281 609.981 221.277 625.799 232.452C647.869 248.036 673.259 269.579 699.161 291.688C738.445 325.226 729.024 346.58 702.27 367.958C677.78 387.527 639.36 405.312 622.386 429.221C604.502 454.407 571.852 490.263 543.051 499.913C523.616 506.423 507.191 504.209 495.536 489.567C491.009 483.882 488.455 476.409 486.761 469.523C478.703 436.81 511.305 407.414 511.696 346.94Z" stroke="#EBFFB4" stroke-width="4" stroke-miterlimit="10"/>
<path d="M530.113 343.624C533.119 199.174 544.188 275.516 571.37 236.382C584.388 217.646 588.238 215.511 600.136 222.305C607.963 226.771 618.001 234.061 631.819 243.206C652.604 256.95 675.141 276.486 695.771 296.59C725.471 325.554 717.147 345.252 693.928 365.12C673.12 382.92 640.957 399.271 624.661 419.759C607.283 441.586 578.482 470.79 553.209 479.362C534.942 485.558 519.6 484.103 509.156 471.992C504.701 466.833 502.474 459.89 501.037 453.808C493.769 423.092 528.98 398.794 530.129 343.627L530.113 343.624Z" stroke="#EBFFB4" stroke-width="4" stroke-miterlimit="10"/>
<path d="M548.532 340.307C554.357 232.369 559.067 278.016 581.842 248.674C592.533 234.891 597.928 233.125 608.947 237.887C616.692 241.232 626.043 246.817 637.855 253.962C657.386 265.792 677.112 283.266 692.394 301.509C712.637 325.668 705.254 343.935 685.587 362.281C668.433 378.291 642.543 393.211 626.922 410.293C610.034 428.759 585.112 451.317 563.335 458.819C546.234 464.703 531.935 464.047 522.746 454.41C518.361 449.794 516.467 443.349 515.284 438.086C508.82 409.371 545.833 390.203 548.516 340.304L548.532 340.307Z" stroke="#EBFFB4" stroke-width="4" stroke-miterlimit="10"/>
<path d="M566.952 336.976C587.458 267.933 573.909 280.461 592.301 260.949C600.657 252.083 607.607 250.626 617.745 253.452C625.411 255.58 634.1 259.496 643.875 264.717C662.22 274.534 679.305 289.819 689.005 306.411C700.141 325.45 693.325 342.548 677.245 359.443C663.73 373.66 644.116 387.133 629.201 400.816C612.781 415.867 591.758 431.847 573.496 438.253C557.575 443.842 544.242 444.05 536.388 436.808C532.028 432.789 530.508 426.802 529.564 422.355C523.95 395.651 554.161 380.019 566.952 336.976Z" stroke="#EBFFB4" stroke-width="4" stroke-miterlimit="10"/>
<path d="M550.009 419.233C556.524 424.176 568.91 423.011 583.655 417.702C598.4 412.392 615.516 402.957 631.479 391.339C663.421 368.106 690.806 336.187 685.618 311.297C682.468 296.163 667.139 283.004 649.898 275.455C632.657 267.906 613.522 265.956 602.761 273.224C588.621 282.753 601.079 299.971 585.37 333.66C568.458 369.944 539.133 381.909 543.844 406.625C544.534 410.253 545.613 415.879 550.012 419.217L550.009 419.233Z" stroke="#EBFFB4" stroke-width="4" stroke-miterlimit="10"/>
<path d="M480.255 769.79C531.462 722.482 653.639 653.925 727.145 666.019C800.651 678.113 825.473 770.848 682.003 1046.13C395.062 1596.68 564.457 1148.05 413.364 1258.01C337.813 1312.99 345.433 1327.31 342.897 1286.2C341.634 1265.64 337.833 1231.21 319.84 1181.08C301.847 1130.95 269.659 1065.1 211.629 981.673C110.682 836.605 152.233 807.285 231.828 802.416C311.424 797.547 429.061 817.106 480.268 769.799L480.255 769.79Z" stroke="#EBFFB4" stroke-width="4" stroke-miterlimit="10"/>
<path d="M664.04 1040.82C391.441 1557.47 552.235 1139.12 409.519 1242.34C338.238 1293.94 345.019 1307.19 342.002 1268.33C340.497 1248.8 336.569 1216.14 319.276 1168.77C301.755 1120.82 271.001 1057.96 216.838 978.822C122.427 841.953 162.241 813.789 237.981 808.704C313.5 803.725 424.871 821.767 473.959 777.23C523.179 732.677 638.942 668.363 708.821 679.821C742.193 685.274 765.043 707.602 766.01 756.733C766.265 769.439 764.948 783.907 762.024 800.131C751.768 856.507 720.808 933.215 664.04 1040.82Z" stroke="#EBFFB4" stroke-width="4" stroke-miterlimit="10"/>
<path d="M646.098 1035.5C387.946 1518.28 540.023 1130.18 405.693 1226.65C338.695 1274.88 344.613 1287.04 341.139 1250.45C339.379 1231.94 335.334 1201.04 318.722 1156.45C302.11 1111.85 272.632 1050.62 222.057 975.958C134.681 846.982 172.246 820.272 244.144 814.981C315.585 809.892 420.691 826.416 467.662 784.671C514.908 742.881 624.246 682.801 690.497 693.623C722.676 698.844 744.606 719.976 745.923 766.332C746.269 778.512 744.979 792.384 742.187 807.774C732.156 861.995 700.762 933.227 646.076 1035.5L646.098 1035.5Z" stroke="#EBFFB4" stroke-width="4" stroke-miterlimit="10"/>
<path d="M628.155 1030.18C384.522 1479.12 527.809 1121.24 401.869 1210.99C339.141 1255.83 344.209 1266.91 340.265 1232.59C338.251 1215.08 334.091 1185.97 318.167 1144.12C301.592 1100.56 274.129 1043.39 227.276 973.094C146.686 852.174 182.253 826.776 250.308 821.278C317.686 816.089 416.512 831.087 461.365 792.112C506.624 753.075 609.548 697.238 672.195 707.422C703.19 712.397 724.192 732.369 725.866 775.916C726.307 787.591 725.087 800.861 722.38 815.401C712.68 867.511 680.77 933.222 628.145 1030.19L628.155 1030.18Z" stroke="#EBFFB4" stroke-width="4" stroke-miterlimit="10"/>
<path d="M574.329 1014.22C375.01 1361.91 491.194 1094.42 390.405 1163.95C340.512 1198.66 342.967 1206.45 337.678 1178.97C334.897 1164.49 330.306 1140.74 316.538 1107.17C301.36 1070.16 278.628 1021.72 242.98 964.52C182.719 867.808 212.299 846.029 268.842 840.124C323.984 834.381 403.886 844.887 442.516 814.407C481.708 783.488 565.501 740.624 617.274 748.787C644.696 753.109 663.037 769.493 665.652 804.651C666.407 814.799 665.277 826.267 662.937 838.265C653.997 883.957 620.797 933.127 574.307 1014.22L574.329 1014.22Z" stroke="#EBFFB4" stroke-width="4" stroke-miterlimit="10"/>
<path d="M592.271 1019.54C378.037 1400.94 503.407 1103.36 394.241 1179.63C340.066 1217.71 343.418 1226.6 338.563 1196.84C336.037 1181.35 331.604 1155.81 317.105 1119.5C301.464 1080.3 277.152 1028.95 237.761 967.383C170.721 862.58 202.297 839.568 262.68 833.847C321.901 828.237 408.081 840.27 448.816 806.988C490.007 773.325 580.208 726.095 635.601 735.007C664.22 739.505 683.43 757.125 685.742 795.074C686.393 805.739 685.237 817.803 682.765 830.635C673.575 878.461 640.791 933.154 592.271 1019.54Z" stroke="#EBFFB4" stroke-width="4" stroke-miterlimit="10"/>
<path d="M610.213 1024.86C381.214 1440 515.607 1112.29 398.055 1195.31C339.609 1236.78 343.815 1246.76 339.414 1214.72C337.145 1198.23 332.837 1170.89 317.647 1131.81C301.544 1090.42 275.64 1036.16 232.529 970.238C158.713 857.365 192.282 833.099 256.505 827.562C319.796 822.096 412.274 835.631 455.1 799.538C498.292 763.153 594.883 711.661 653.903 721.208C683.705 725.952 703.811 744.747 705.81 785.5C706.355 796.659 705.162 809.332 702.584 823.017C693.144 872.979 660.785 933.182 610.213 1024.86Z" stroke="#EBFFB4" stroke-width="4" stroke-miterlimit="10"/>
<path d="M556.388 1008.9C372.161 1322.97 478.832 1085.27 386.591 1148.27C340.899 1179.49 342.536 1186.28 336.827 1161.1C333.768 1147.62 329.039 1125.65 316.009 1094.86C301.28 1060.04 280.144 1014.53 248.234 961.664C194.73 873.046 222.336 852.496 275.03 846.419C326.08 840.535 399.728 849.533 436.233 821.858C473.435 793.671 550.807 755.084 598.985 762.596C625.214 766.685 642.706 781.91 645.599 814.258C646.458 823.889 645.355 834.76 643.144 845.903C634.454 889.459 600.859 933.104 556.4 1008.91L556.388 1008.9Z" stroke="#EBFFB4" stroke-width="4" stroke-miterlimit="10"/>
<path d="M538.446 1003.58C369.536 1284.12 466.604 1076.3 382.768 1132.61C341.345 1160.43 342.073 1166.12 335.954 1143.23C332.615 1130.75 327.743 1110.6 315.454 1082.54C301.153 1049.91 281.635 1007.33 253.453 958.8C206.7 878.31 232.338 858.956 281.192 852.695C328.175 846.689 395.522 854.163 429.945 829.286C465.158 803.831 536.119 769.509 580.671 776.385C605.719 780.252 622.369 794.282 625.518 823.822C626.493 832.947 625.414 843.199 623.313 853.512C614.873 894.932 580.906 933.049 538.433 1003.57L538.446 1003.58Z" stroke="#EBFFB4" stroke-width="4" stroke-miterlimit="10"/>
<path d="M520.503 998.265C367.157 1245.36 454.389 1067.33 378.953 1116.93C341.798 1141.35 341.585 1145.94 335.103 1125.36C331.484 1113.87 326.444 1095.53 314.921 1070.22C301.06 1039.78 283.137 1000.14 258.693 955.934C218.681 883.585 242.362 865.414 287.388 858.979C330.292 852.84 391.385 858.806 423.68 836.712C455.974 814.619 521.466 783.941 562.388 790.16C586.243 793.793 602.1 806.669 605.471 833.394C606.562 842.012 605.498 851.658 603.526 861.115C595.323 900.391 561.018 932.987 520.522 998.24L520.503 998.265Z" stroke="#EBFFB4" stroke-width="4" stroke-miterlimit="10"/>
<path d="M502.561 992.946C365.112 1206.76 442.161 1058.36 375.127 1101.24C342.242 1122.28 341.062 1125.76 334.239 1107.48C330.317 1096.97 325.123 1080.46 314.379 1057.9C300.924 1029.65 284.646 992.988 263.925 953.08C230.614 888.922 252.379 871.906 293.563 865.264C332.377 859.006 387.215 863.443 417.383 844.153C447.552 824.864 506.769 798.379 544.064 803.961C566.726 807.363 581.823 819.067 585.384 842.993C586.603 851.114 585.531 860.157 583.7 868.767C575.736 905.898 541.125 932.958 502.561 992.946Z" stroke="#EBFFB4" stroke-width="4" stroke-miterlimit="10"/>
<path d="M484.62 987.627C363.46 1168.35 429.947 1049.4 371.304 1085.57C342.699 1103.22 340.497 1105.58 333.367 1089.61C329.131 1080.09 323.762 1065.41 313.825 1045.58C300.766 1019.53 286.111 985.844 269.144 950.216C242.52 894.295 262.375 878.401 299.717 871.553C334.454 865.185 383.025 868.103 411.087 851.594C439.149 835.084 492.073 812.816 525.753 817.772C547.232 820.929 561.58 831.473 565.319 852.59C566.655 860.203 565.597 868.64 563.885 876.407C556.149 911.405 521.288 932.933 484.632 987.637L484.62 987.627Z" stroke="#EBFFB4" stroke-width="4" stroke-miterlimit="10"/>
<path d="M466.678 982.308C384.258 1143.45 417.744 1040.45 367.49 1069.9C343.156 1084.15 339.899 1085.42 332.516 1071.74C327.922 1063.22 322.387 1050.36 313.283 1033.27C300.576 1009.42 287.584 978.766 274.388 947.372C254.378 899.753 272.395 884.915 305.904 877.848C336.577 871.38 378.891 872.769 404.803 859.045C432.101 844.589 477.386 827.242 507.451 831.572C527.737 834.495 541.413 843.858 545.241 862.177C546.727 869.29 545.649 877.114 544.067 884.026C536.555 916.869 494.217 928.467 466.678 982.308Z" stroke="#EBFFB4" stroke-width="4" stroke-miterlimit="10"/>
<path d="M448.736 976.989C381.104 1104.66 405.541 1031.5 363.667 1054.23C343.615 1065.11 339.215 1065.29 331.643 1053.87C326.66 1046.36 320.972 1035.34 312.741 1020.96C300.354 999.334 289.008 971.751 279.62 944.518C266.114 905.293 282.405 891.441 312.079 884.134C338.668 877.59 374.748 877.447 398.516 866.473C423.852 854.79 462.709 841.654 489.137 845.361C508.24 848.04 521.29 856.238 525.172 871.751C526.832 878.362 525.699 885.565 524.248 891.644C516.931 922.348 474.554 928.22 448.723 976.98L448.736 976.989Z" stroke="#EBFFB4" stroke-width="4" stroke-miterlimit="10"/>
<path d="M430.793 971.671C377.058 1065.46 393.375 1022.57 359.84 1038.54C344.093 1046.05 338.48 1045.2 330.779 1035.99C325.365 1029.52 319.523 1020.33 312.185 1008.63C300.059 989.285 290.296 964.808 284.848 941.642C277.628 910.962 292.437 897.965 318.253 890.42C340.774 883.832 370.607 882.147 392.241 873.912C415.627 865.011 448.031 856.067 470.856 859.157C488.776 861.591 501.254 868.606 505.128 881.345C506.97 887.441 505.764 894.049 504.454 899.282C497.317 927.836 455.637 928.316 430.806 971.68L430.793 971.671Z" stroke="#EBFFB4" stroke-width="4" stroke-miterlimit="10"/>
<path d="M412.842 966.364C363.482 1018.81 381.218 1013.72 356.016 1022.88C344.567 1027.04 337.703 1025.21 329.918 1018.13C324.028 1012.78 318.028 1005.38 311.644 996.321C299.672 979.304 291.283 957.969 290.079 938.788C288.692 916.775 302.468 904.567 324.428 896.706C342.892 890.084 366.469 886.868 385.944 881.352C407.377 875.291 433.341 870.47 452.532 872.959C469.266 875.125 481.27 880.935 485.028 890.934C487.116 896.484 485.782 902.515 484.626 906.912C477.633 933.289 443.62 933.668 412.842 966.364Z" stroke="#EBFFB4" stroke-width="4" stroke-miterlimit="10"/>
<path d="M464.96 900.508C461.363 893.164 449.776 888.635 434.218 886.748C418.661 884.861 399.13 885.593 379.648 888.793C340.671 895.183 301.858 911.381 295.301 935.946C291.311 950.88 299.086 969.526 311.092 984.021C323.098 998.516 339.313 1008.86 352.193 1007.21C369.107 1005.05 365.721 984.073 394.9 961.045C426.32 936.239 457.893 938.737 464.798 914.542C465.813 910.991 467.379 905.48 464.95 900.521L464.96 900.508Z" stroke="#EBFFB4" stroke-width="4" stroke-miterlimit="10"/>
<path d="M299.258 1421.46C355.055 1463.26 444.603 1571 446.019 1645.48C447.436 1719.96 360.729 1761.17 64.0166 1669.92C-529.386 1487.41 -57.5042 1572.77 -193 1444.09C-260.755 1379.74 -273.461 1389.83 -233.489 1379.89C-213.495 1374.92 -180.324 1364.95 -134.281 1338.18C-88.2374 1311.4 -29.3018 1267.82 42.2333 1195.65C166.624 1070.1 202.983 1105.65 222.185 1183.05C241.387 1260.45 243.453 1379.68 299.25 1421.48L299.258 1421.46Z" stroke="#EBFFB4" stroke-width="4" stroke-miterlimit="10"/>
<path d="M65.9921 1651.29C-491.481 1476.75 -50.9374 1559.13 -178.292 1437.47C-241.946 1376.71 -253.75 1385.78 -216.081 1375.77C-197.14 1370.75 -165.736 1360.98 -122.276 1335.39C-78.2918 1309.48 -22.0368 1267.85 45.981 1200.25C163.491 1082.62 198.399 1116.67 217.115 1190.24C235.687 1263.61 238.11 1376.41 290.8 1416.62C343.529 1456.96 427.743 1559.16 429.128 1629.96C429.808 1663.77 411.986 1690.28 363.844 1700.13C351.394 1702.68 336.926 1704.01 320.441 1704.07C263.14 1704.19 182.094 1687.63 65.9921 1651.29Z" stroke="#EBFFB4" stroke-width="4" stroke-miterlimit="10"/>
<path d="M67.9741 1632.68C-453.572 1466.22 -44.3569 1545.5 -163.556 1430.86C-223.115 1373.71 -234.003 1381.73 -198.652 1371.69C-180.758 1366.6 -151.106 1357.03 -110.258 1332.62C-69.4109 1308.2 -14.5302 1268.13 49.7423 1204.87C160.765 1095.58 193.835 1127.69 212.058 1197.44C230 1266.78 232.781 1373.14 282.342 1411.77C331.996 1450.67 410.882 1547.32 412.236 1614.44C412.929 1647.03 396.116 1672.42 350.766 1682.11C338.85 1684.66 324.974 1685.9 309.332 1685.94C254.191 1685.9 178.452 1667.92 67.9674 1632.66L67.9741 1632.68Z" stroke="#EBFFB4" stroke-width="4" stroke-miterlimit="10"/>
<path d="M69.9563 1614.07C-415.684 1455.76 -37.7762 1531.87 -148.84 1424.27C-204.299 1370.69 -214.278 1377.68 -181.237 1367.59C-164.389 1362.44 -136.511 1353.08 -98.2401 1329.84C-58.394 1305.65 -7.14087 1268.29 53.5039 1209.48C157.831 1108.33 189.251 1138.71 206.981 1204.64C224.285 1269.97 227.431 1369.87 273.884 1406.93C320.47 1444.37 394.022 1535.48 395.351 1598.94C396.07 1630.32 380.232 1654.59 337.708 1664.12C326.305 1666.67 313.034 1667.87 298.244 1667.84C245.24 1667.74 174.837 1648.26 69.9423 1614.06L69.9563 1614.07Z" stroke="#EBFFB4" stroke-width="4" stroke-miterlimit="10"/>
<path d="M75.9022 1558.24C-302.134 1425.18 -18.028 1491.01 -104.66 1404.47C-147.83 1361.69 -155.045 1365.52 -128.973 1355.34C-115.241 1349.98 -92.7117 1341.16 -62.1866 1321.54C-28.5442 1299.92 14.984 1268.79 64.7802 1223.37C148.981 1146.6 175.757 1171.74 191.803 1226.28C207.436 1279.47 211.573 1359.96 248.544 1392.43C286.048 1425.37 343.378 1500.02 344.725 1552.41C345.44 1580.17 332.648 1601.17 298.544 1610.11C288.701 1612.69 277.218 1613.65 264.994 1613.52C218.439 1613.01 164.07 1589.26 75.8955 1558.22L75.9022 1558.24Z" stroke="#EBFFB4" stroke-width="4" stroke-miterlimit="10"/>
<path d="M73.9203 1576.85C-339.965 1435.22 -24.6083 1504.64 -119.382 1411.09C-166.646 1364.7 -174.778 1369.61 -146.395 1359.45C-131.617 1354.16 -107.3 1345.17 -74.2117 1324.34C-38.4968 1301.86 7.60177 1268.65 61.019 1218.76C151.95 1133.85 180.299 1160.74 196.86 1219.08C213.102 1276.31 216.873 1363.25 256.981 1397.28C297.546 1431.69 360.329 1511.85 361.595 1567.94C362.354 1596.9 348.504 1618.99 311.601 1628.13C301.231 1630.7 289.156 1631.75 276.089 1631.64C227.389 1631.27 167.664 1608.93 73.9203 1576.85Z" stroke="#EBFFB4" stroke-width="4" stroke-miterlimit="10"/>
<path d="M71.938 1595.46C-377.806 1445.42 -31.182 1518.25 -134.112 1417.68C-185.476 1367.71 -194.539 1373.65 -163.816 1363.52C-148.014 1358.3 -121.909 1349.11 -86.2229 1327.1C-48.4354 1303.77 0.240642 1268.46 57.2644 1214.13C154.904 1121.09 184.849 1149.72 201.923 1211.87C218.76 1273.13 222.194 1366.53 265.446 1402.11C309.051 1438 377.183 1523.67 378.48 1583.44C379.212 1613.61 364.368 1636.79 324.651 1646.13C313.775 1648.69 301.095 1649.81 287.17 1649.75C236.324 1649.52 171.257 1628.6 71.938 1595.46Z" stroke="#EBFFB4" stroke-width="4" stroke-miterlimit="10"/>
<path d="M77.8841 1539.64C-264.348 1415.33 -11.2619 1477.19 -89.9314 1397.88C-128.9 1358.6 -135.284 1361.44 -111.552 1351.27C-98.851 1345.82 -78.1026 1337.19 -50.1832 1318.8C-18.6061 1298.01 22.3234 1268.98 68.5409 1228.02C146.005 1159.36 171.214 1182.78 186.732 1233.51C201.763 1282.65 206.25 1356.71 240.078 1387.6C274.536 1419.08 326.496 1488.19 327.832 1536.93C328.56 1563.46 316.755 1583.42 285.466 1592.13C276.149 1594.71 265.258 1595.6 253.899 1595.44C209.489 1594.78 160.482 1569.65 77.8768 1539.65L77.8841 1539.64Z" stroke="#EBFFB4" stroke-width="4" stroke-miterlimit="10"/>
<path d="M79.8659 1521.03C-226.615 1405.71 -4.65299 1463.54 -75.2164 1391.29C-110.084 1355.59 -115.543 1357.33 -94.1374 1347.17C-82.4679 1341.63 -63.5353 1333.19 -38.1652 1316.02C-8.66018 1296.05 29.6772 1269.14 72.3022 1232.64C142.995 1172.08 166.672 1193.79 181.676 1240.7C196.091 1285.82 200.936 1353.41 231.634 1382.76C263.045 1412.78 309.65 1476.35 310.955 1521.41C311.688 1546.75 300.904 1565.66 272.423 1574.11C263.625 1576.72 253.347 1577.52 242.825 1577.32C200.561 1576.52 156.923 1550.01 79.8731 1521.01L79.8659 1521.03Z" stroke="#EBFFB4" stroke-width="4" stroke-miterlimit="10"/>
<path d="M81.8474 1502.42C-188.928 1396.35 1.94821 1449.9 -60.488 1384.7C-91.2326 1352.58 -95.7888 1353.2 -76.7167 1343.1C-66.0786 1337.46 -48.9472 1329.18 -26.141 1313.26C1.28479 1294.12 37.0235 1269.32 76.0698 1237.27C139.977 1184.82 162.136 1204.82 176.618 1247.94C190.424 1289.02 195.62 1350.18 223.196 1377.94C250.773 1405.7 292.802 1464.56 294.097 1505.93C294.843 1530.05 285.052 1547.97 259.379 1556.13C251.101 1558.76 241.421 1559.46 231.764 1559.23C191.652 1558.28 153.383 1530.44 81.8753 1502.43L81.8474 1502.42Z" stroke="#EBFFB4" stroke-width="4" stroke-miterlimit="10"/>
<path d="M83.8295 1483.81C-151.339 1387.35 8.55727 1436.25 -45.7516 1378.09C-72.3951 1349.56 -76.0331 1349.03 -59.2881 1339.01C-49.6668 1333.25 -34.3653 1325.15 -14.1302 1310.5C11.2169 1292.15 44.3279 1269.5 79.824 1241.9C136.89 1197.52 157.565 1215.85 171.555 1255.15C184.738 1292.19 190.305 1346.92 214.738 1373.1C239.172 1399.27 275.942 1452.72 277.205 1490.4C277.964 1513.31 269.186 1530.27 246.301 1538.11C238.535 1540.78 229.448 1541.36 220.648 1541.12C182.689 1540.01 149.809 1510.87 83.8295 1483.81Z" stroke="#EBFFB4" stroke-width="4" stroke-miterlimit="10"/>
<path d="M85.8119 1465.2C-113.861 1378.77 15.1593 1422.62 -31.0362 1371.5C-53.5645 1346.56 -56.2905 1344.82 -41.8731 1334.92C-33.2825 1329.03 -19.8175 1321.09 -2.11172 1307.73C21.1428 1290.17 51.6192 1269.65 83.5857 1246.51C133.761 1210.2 152.988 1226.85 166.485 1262.34C179.038 1295.35 184.962 1343.64 206.28 1368.25C227.599 1392.86 259.082 1440.88 260.307 1474.9C261.092 1496.59 253.321 1512.61 233.23 1520.11C225.984 1522.81 217.495 1523.29 209.546 1523.02C173.726 1521.75 146.241 1491.36 85.8046 1465.22L85.8119 1465.2Z" stroke="#EBFFB4" stroke-width="4" stroke-miterlimit="10"/>
<path d="M87.7934 1446.59C-85.608 1394.72 21.7533 1409 -16.3077 1364.91C-34.7348 1343.56 -36.5694 1340.58 -24.4523 1330.84C-16.9059 1324.78 -5.26342 1317.01 9.89855 1304.96C31.0471 1288.15 58.8462 1269.82 87.3322 1251.16C130.54 1222.85 148.396 1237.89 161.413 1269.56C173.329 1298.56 179.625 1340.42 197.815 1363.42C216.975 1387.65 242.236 1429.04 243.421 1459.4C244.22 1479.88 237.488 1495.02 220.165 1502.1C213.439 1504.85 205.549 1505.21 198.465 1504.91C164.804 1503.47 145.731 1463.93 87.7934 1446.59Z" stroke="#EBFFB4" stroke-width="4" stroke-miterlimit="10"/>
<path d="M89.7754 1427.98C-48.0353 1384.59 28.3478 1395.37 -1.59268 1358.31C-15.9257 1340.56 -16.8957 1336.26 -7.03767 1326.75C-0.555977 1320.49 9.25673 1312.9 21.9094 1302.2C40.9314 1286.1 66.0039 1269.95 91.0863 1255.78C127.217 1235.4 143.79 1248.91 156.35 1276.77C167.6 1301.74 174.275 1337.2 189.371 1358.58C205.448 1381.38 225.403 1417.22 226.544 1443.88C227.369 1463.15 221.669 1477.47 207.115 1484.1C200.914 1486.93 193.625 1487.12 187.384 1486.79C155.862 1485.16 142.414 1444.54 89.7826 1427.97L89.7754 1427.98Z" stroke="#EBFFB4" stroke-width="4" stroke-miterlimit="10"/>
<path d="M91.7571 1409.38C-10.2155 1373.51 34.9202 1381.79 13.1432 1351.7C2.91081 1337.58 2.72911 1331.9 10.3905 1322.66C15.7729 1316.17 23.7558 1308.76 33.9271 1299.42C50.7601 1283.99 73.0649 1269.96 94.8613 1260.41C123.727 1247.75 139.19 1259.96 151.286 1283.98C161.842 1304.94 168.902 1333.97 180.919 1353.76C193.907 1375.15 208.571 1405.39 209.665 1428.4C210.517 1446.47 205.877 1460.01 194.05 1466.13C188.389 1469.04 181.672 1469.05 176.288 1468.71C146.913 1466.86 138.894 1425.96 91.7498 1409.39L91.7571 1409.38Z" stroke="#EBFFB4" stroke-width="4" stroke-miterlimit="10"/>
<path d="M93.7253 1390.76C33.2035 1351.71 41.4297 1368.23 27.8586 1345.11C21.6917 1334.6 22.2425 1327.52 27.7981 1318.58C31.9904 1311.82 38.1859 1304.58 45.9382 1296.66C60.5064 1281.8 79.9696 1269.69 98.6158 1265.03C120.014 1259.68 134.514 1271.02 146.222 1291.19C156.078 1308.15 163.51 1330.76 172.461 1348.91C182.303 1368.89 191.746 1393.56 192.774 1412.88C193.673 1429.73 190.134 1442.59 180.98 1448.09C175.899 1451.15 169.727 1450.93 165.193 1450.59C137.987 1448.49 131.454 1415.11 93.7253 1390.76Z" stroke="#EBFFB4" stroke-width="4" stroke-miterlimit="10"/>
<path d="M167.93 1430.09C174.501 1425.22 176.857 1413.01 175.896 1397.37C174.935 1381.72 170.678 1362.65 164.003 1344.07C150.66 1306.89 127.702 1271.66 102.356 1269.65C86.9461 1268.43 70.0161 1279.46 57.9351 1293.89C45.854 1308.32 38.6152 1326.14 42.5736 1338.51C47.7548 1354.75 67.7763 1347.63 95.7074 1372.15C125.793 1398.56 129.054 1430.06 154.099 1432.47C157.775 1432.83 163.478 1433.37 167.916 1430.08L167.93 1430.09Z" stroke="#EBFFB4" stroke-width="4" stroke-miterlimit="10"/>
</g>
<mask id="mask1_11_1352" style="mask-type:alpha" maskUnits="userSpaceOnUse" x="610" y="0" width="610" height="1729">
<rect x="610" width="610" height="1729" fill="#8F56E9"/>
</mask>
<g mask="url(#mask1_11_1352)">
<path d="M1205.12 542.871C1180.65 608.15 1102.35 724.319 1031.25 746.567C960.157 768.814 896.29 697.142 900.666 386.746C909.433 -234.026 959.836 242.858 1045.36 76.7106C1088.12 -6.37065 1074.87 -15.7379 1095.62 19.8435C1106 37.6419 1124.87 66.6859 1163.48 103.373C1202.09 140.06 1260.45 184.409 1349.8 232.832C1505.19 317.023 1481.26 361.893 1412.35 402.03C1343.44 442.167 1229.57 477.588 1205.11 542.868L1205.12 542.871Z" stroke="#8F56E9" stroke-width="4" stroke-miterlimit="10"/>
<path d="M919.102 383.418C930.295 -200.632 974.767 245.337 1055.83 88.9729C1096.3 10.8342 1084.29 2.04701 1104.46 35.3989C1114.58 52.1718 1132.77 79.5749 1169.52 114.115C1206.73 149.067 1262.47 191.39 1346.43 237.721C1492.29 317.526 1469.39 360.583 1404.03 399.18C1338.81 437.582 1231.22 471.541 1207.4 533.393C1183.47 595.32 1108.98 704.816 1041.41 726C1009.15 736.134 978.703 726.464 955.749 683.014C949.809 671.78 944.48 658.264 939.797 642.458C923.61 587.491 916.775 505.053 919.102 383.418Z" stroke="#8F56E9" stroke-width="4" stroke-miterlimit="10"/>
<path d="M937.52 380.102C951.038 -167.198 989.695 247.831 1066.31 101.266C1104.47 28.0664 1093.71 19.8655 1113.27 50.9817C1123.16 66.7322 1140.67 92.5099 1175.56 124.872C1210.44 157.234 1264.31 198.673 1343.05 242.626C1479.09 318.544 1457.54 359.291 1395.7 396.344C1334.18 433.012 1232.86 465.509 1209.68 523.916C1186.27 582.486 1115.62 685.312 1051.57 705.433C1020.48 715.238 991.395 706.222 969.376 665.408C963.59 654.685 958.506 641.714 954.08 626.712C938.661 573.77 934.675 496.029 937.538 380.089L937.52 380.102Z" stroke="#8F56E9" stroke-width="4" stroke-miterlimit="10"/>
<path d="M955.938 376.786C971.702 -133.764 1004.62 250.325 1076.77 113.54C1112.63 45.2833 1103.13 37.6656 1122.08 66.5493C1131.75 81.2774 1148.55 105.411 1181.59 135.629C1215.99 167.092 1266.22 205.811 1339.68 247.53C1466.03 319.303 1445.68 357.981 1387.36 393.491C1329.51 428.42 1234.5 459.459 1211.96 514.438C1189.08 569.656 1122.25 665.808 1061.72 684.879C1031.8 694.371 1004.06 685.974 982.982 647.83C977.339 637.599 972.462 625.198 968.342 610.993C953.577 560.087 952.535 487.045 955.941 376.77L955.938 376.786Z" stroke="#8F56E9" stroke-width="4" stroke-miterlimit="10"/>
<path d="M1011.19 366.837C1032.9 -33.3454 1049.39 257.82 1108.15 150.397C1137.11 96.9619 1131.42 91.109 1148.5 113.28C1157.49 124.959 1172.27 144.111 1199.67 167.909C1229.86 194.136 1271.95 227.188 1329.51 262.25C1426.81 321.54 1410.19 354.294 1362.34 384.991C1315.66 414.914 1239.57 441.455 1218.77 486.049C1197.66 531.288 1142.09 607.25 1092.18 623.237C1065.74 631.706 1041.99 625.318 1023.85 595.089C1018.61 586.364 1014.46 575.613 1011.16 563.844C998.599 519.012 1006.15 460.164 1011.21 366.825L1011.19 366.837Z" stroke="#8F56E9" stroke-width="4" stroke-miterlimit="10"/>
<path d="M992.773 370.153C1012.65 -66.8418 1034.46 255.326 1097.68 138.12C1128.95 79.7451 1121.96 73.3153 1139.67 97.7093C1148.89 110.411 1164.34 131.232 1193.61 157.149C1225.21 185.127 1270.01 220.063 1332.88 257.345C1439.88 320.815 1422.02 355.567 1370.66 387.827C1320.29 419.465 1237.9 447.465 1216.48 495.508C1194.82 544.097 1135.49 626.84 1082 643.785C1054.42 652.635 1029.34 645.535 1010.21 612.677C1004.83 603.444 1000.44 592.148 996.878 579.575C983.583 532.723 988.275 469.13 992.773 370.153Z" stroke="#8F56E9" stroke-width="4" stroke-miterlimit="10"/>
<path d="M974.356 373.469C992.247 -100.305 1019.55 252.834 1087.22 125.83C1120.78 62.5124 1112.54 55.4809 1130.88 82.129C1140.31 95.8346 1156.45 118.315 1187.59 146.395C1220.59 176.123 1268.12 212.946 1336.27 252.443C1452.95 320.074 1433.88 356.843 1379 390.665C1324.93 424.004 1236.24 453.494 1214.21 504.988C1191.99 556.908 1128.87 646.331 1071.86 664.34C1043.11 673.503 1016.7 665.754 996.587 630.252C991.083 620.529 986.451 608.673 982.601 595.29C968.569 546.419 970.403 478.095 974.356 373.469Z" stroke="#8F56E9" stroke-width="4" stroke-miterlimit="10"/>
<path d="M1029.61 363.521C1052.95 0.160987 1064.55 260.44 1118.61 162.687C1145.39 114.265 1140.87 108.934 1157.29 128.86C1166.09 139.523 1180.19 157.019 1205.67 178.66C1234.48 203.14 1273.82 234.286 1326.1 267.163C1413.73 322.263 1398.31 353.03 1353.98 382.15C1311.02 410.359 1241.2 435.435 1221.03 476.569C1200.48 518.473 1148.71 587.728 1102.3 602.68C1077.04 610.82 1054.57 605.086 1037.44 577.493C1032.34 569.276 1028.44 559.07 1025.4 548.123C1013.58 505.31 1023.97 451.221 1029.59 363.518L1029.61 363.521Z" stroke="#8F56E9" stroke-width="4" stroke-miterlimit="10"/>
<path d="M1048.03 360.205C1072.77 33.6827 1079.5 262.956 1129.07 174.961C1153.56 131.482 1150.35 126.731 1166.11 144.427C1174.7 154.074 1188.11 169.88 1211.71 189.417C1239.15 212.137 1275.73 241.39 1322.72 272.068C1400.67 322.941 1386.47 351.757 1345.65 379.315C1306.39 405.804 1242.87 429.409 1223.31 467.106C1203.3 505.676 1155.35 568.239 1112.46 582.128C1088.35 589.937 1067.17 584.89 1051.08 559.92C1046.1 552.209 1042.46 542.566 1039.7 532.41C1028.61 491.617 1041.81 442.298 1048.04 360.208L1048.03 360.205Z" stroke="#8F56E9" stroke-width="4" stroke-miterlimit="10"/>
<path d="M1066.44 356.888C1092.32 67.2325 1094.44 265.468 1139.52 187.25C1161.73 148.732 1159.86 144.533 1174.9 160.007C1183.3 168.637 1196.05 182.759 1217.72 200.186C1243.79 221.143 1277.62 248.491 1319.33 276.984C1387.6 323.617 1374.62 350.495 1337.29 376.488C1301.73 401.262 1244.48 423.402 1225.57 457.656C1206.65 491.911 1161.95 548.759 1122.6 561.604C1099.66 569.084 1079.7 564.713 1064.68 542.357C1059.83 535.15 1056.44 526.056 1053.95 516.722C1043.62 477.952 1059.6 433.412 1066.44 356.919L1066.44 356.888Z" stroke="#8F56E9" stroke-width="4" stroke-miterlimit="10"/>
<path d="M1084.86 353.572C1111.5 100.789 1109.4 267.984 1150 199.543C1169.91 165.968 1169.4 162.327 1183.71 175.59C1191.94 183.21 1204.01 195.626 1223.74 210.94C1248.46 230.125 1279.49 255.555 1315.94 281.886C1374.54 324.216 1362.75 349.2 1328.95 373.65C1297.09 396.692 1246.12 417.385 1227.84 448.179C1209.57 478.973 1168.58 529.255 1132.76 541.037C1110.99 548.189 1092.24 544.521 1078.3 524.751C1073.56 518.046 1070.46 509.487 1068.22 500.972C1058.64 464.226 1077.39 424.493 1084.86 353.572Z" stroke="#8F56E9" stroke-width="4" stroke-miterlimit="10"/>
<path d="M1103.28 350.256C1130.25 134.357 1124.34 270.497 1160.45 211.818C1178.07 183.2 1178.98 180.096 1192.53 191.158C1200.59 197.752 1211.99 208.45 1229.78 221.698C1253.16 239.095 1281.39 262.595 1312.57 286.79C1361.49 324.769 1350.9 347.894 1320.63 370.8C1292.46 392.107 1247.76 411.338 1230.12 438.702C1212.48 466.066 1175.22 509.752 1142.91 520.468C1122.3 527.306 1104.75 524.339 1091.91 507.158C1087.3 500.958 1084.45 492.947 1082.48 485.239C1073.66 450.5 1095.12 415.596 1103.26 350.253L1103.28 350.256Z" stroke="#8F56E9" stroke-width="4" stroke-miterlimit="10"/>
<path d="M1121.7 346.94C1122.86 165.948 1139.26 273.006 1170.91 224.108C1186.24 200.432 1188.58 197.837 1201.32 206.737C1209.26 212.281 1219.98 221.277 1235.8 232.452C1257.87 248.036 1283.26 269.579 1309.16 291.688C1348.44 325.226 1339.02 346.58 1312.27 367.958C1287.78 387.527 1249.36 405.312 1232.39 429.221C1214.5 454.407 1181.85 490.263 1153.05 499.913C1133.62 506.423 1117.19 504.209 1105.54 489.567C1101.01 483.882 1098.45 476.409 1096.76 469.523C1088.7 436.81 1121.31 407.414 1121.7 346.94Z" stroke="#8F56E9" stroke-width="4" stroke-miterlimit="10"/>
<path d="M1140.11 343.624C1143.12 199.174 1154.19 275.516 1181.37 236.382C1194.39 217.646 1198.24 215.511 1210.14 222.305C1217.96 226.771 1228 234.061 1241.82 243.206C1262.6 256.95 1285.14 276.486 1305.77 296.59C1335.47 325.554 1327.15 345.252 1303.93 365.12C1283.12 382.92 1250.96 399.271 1234.66 419.759C1217.28 441.586 1188.48 470.79 1163.21 479.362C1144.94 485.558 1129.6 484.103 1119.16 471.992C1114.7 466.833 1112.47 459.89 1111.04 453.808C1103.77 423.092 1138.98 398.794 1140.13 343.627L1140.11 343.624Z" stroke="#8F56E9" stroke-width="4" stroke-miterlimit="10"/>
<path d="M1158.53 340.307C1164.36 232.369 1169.07 278.016 1191.84 248.674C1202.53 234.891 1207.93 233.125 1218.95 237.887C1226.69 241.232 1236.04 246.817 1247.85 253.962C1267.39 265.792 1287.11 283.266 1302.39 301.509C1322.64 325.668 1315.25 343.935 1295.59 362.281C1278.43 378.291 1252.54 393.211 1236.92 410.293C1220.03 428.759 1195.11 451.317 1173.33 458.819C1156.23 464.703 1141.93 464.047 1132.75 454.41C1128.36 449.794 1126.47 443.349 1125.28 438.086C1118.82 409.371 1155.83 390.203 1158.52 340.304L1158.53 340.307Z" stroke="#8F56E9" stroke-width="4" stroke-miterlimit="10"/>
<path d="M1176.95 336.976C1197.46 267.933 1183.91 280.461 1202.3 260.949C1210.66 252.083 1217.61 250.626 1227.75 253.452C1235.41 255.58 1244.1 259.496 1253.87 264.717C1272.22 274.534 1289.31 289.819 1299 306.411C1310.14 325.45 1303.33 342.548 1287.25 359.443C1273.73 373.66 1254.12 387.133 1239.2 400.816C1222.78 415.867 1201.76 431.847 1183.5 438.253C1167.58 443.842 1154.24 444.05 1146.39 436.808C1142.03 432.789 1140.51 426.802 1139.56 422.355C1133.95 395.651 1164.16 380.019 1176.95 336.976Z" stroke="#8F56E9" stroke-width="4" stroke-miterlimit="10"/>
<path d="M1160.01 419.233C1166.52 424.176 1178.91 423.011 1193.66 417.702C1208.4 412.392 1225.52 402.957 1241.48 391.339C1273.42 368.106 1300.81 336.187 1295.62 311.297C1292.47 296.163 1277.14 283.004 1259.9 275.455C1242.66 267.906 1223.52 265.956 1212.76 273.224C1198.62 282.753 1211.08 299.971 1195.37 333.66C1178.46 369.944 1149.13 381.909 1153.84 406.625C1154.53 410.253 1155.61 415.879 1160.01 419.217L1160.01 419.233Z" stroke="#8F56E9" stroke-width="4" stroke-miterlimit="10"/>
<path d="M1090.26 769.79C1141.46 722.482 1263.64 653.925 1337.14 666.019C1410.65 678.113 1435.47 770.848 1292 1046.13C1005.06 1596.68 1174.46 1148.05 1023.36 1258.01C947.813 1312.99 955.433 1327.31 952.897 1286.2C951.634 1265.64 947.833 1231.21 929.84 1181.08C911.847 1130.95 879.659 1065.1 821.629 981.673C720.682 836.605 762.233 807.285 841.828 802.416C921.424 797.547 1039.06 817.106 1090.27 769.799L1090.26 769.79Z" stroke="#8F56E9" stroke-width="4" stroke-miterlimit="10"/>
<path d="M1274.04 1040.82C1001.44 1557.47 1162.23 1139.12 1019.52 1242.34C948.238 1293.94 955.019 1307.19 952.002 1268.33C950.497 1248.8 946.569 1216.14 929.276 1168.77C911.755 1120.82 881.001 1057.96 826.838 978.822C732.427 841.953 772.241 813.789 847.981 808.704C923.5 803.725 1034.87 821.767 1083.96 777.23C1133.18 732.677 1248.94 668.363 1318.82 679.821C1352.19 685.274 1375.04 707.602 1376.01 756.733C1376.27 769.439 1374.95 783.907 1372.02 800.131C1361.77 856.507 1330.81 933.215 1274.04 1040.82Z" stroke="#8F56E9" stroke-width="4" stroke-miterlimit="10"/>
<path d="M1256.1 1035.5C997.946 1518.28 1150.02 1130.18 1015.69 1226.65C948.695 1274.88 954.613 1287.04 951.139 1250.45C949.379 1231.94 945.334 1201.04 928.722 1156.45C912.11 1111.85 882.632 1050.62 832.057 975.958C744.681 846.982 782.246 820.272 854.144 814.981C925.585 809.892 1030.69 826.416 1077.66 784.671C1124.91 742.881 1234.25 682.801 1300.5 693.623C1332.68 698.844 1354.61 719.976 1355.92 766.332C1356.27 778.512 1354.98 792.384 1352.19 807.774C1342.16 861.995 1310.76 933.227 1256.08 1035.5L1256.1 1035.5Z" stroke="#8F56E9" stroke-width="4" stroke-miterlimit="10"/>
<path d="M1238.16 1030.18C994.522 1479.12 1137.81 1121.24 1011.87 1210.99C949.141 1255.83 954.209 1266.91 950.265 1232.59C948.251 1215.08 944.091 1185.97 928.167 1144.12C911.592 1100.56 884.129 1043.39 837.276 973.094C756.686 852.174 792.253 826.776 860.308 821.278C927.686 816.089 1026.51 831.087 1071.36 792.112C1116.62 753.075 1219.55 697.238 1282.19 707.422C1313.19 712.397 1334.19 732.369 1335.87 775.916C1336.31 787.591 1335.09 800.861 1332.38 815.401C1322.68 867.511 1290.77 933.222 1238.15 1030.19L1238.16 1030.18Z" stroke="#8F56E9" stroke-width="4" stroke-miterlimit="10"/>
<path d="M1184.33 1014.22C985.01 1361.91 1101.19 1094.42 1000.4 1163.95C950.512 1198.66 952.967 1206.45 947.678 1178.97C944.897 1164.49 940.306 1140.74 926.538 1107.17C911.36 1070.16 888.628 1021.72 852.98 964.52C792.719 867.808 822.299 846.029 878.842 840.124C933.984 834.381 1013.89 844.887 1052.52 814.407C1091.71 783.488 1175.5 740.624 1227.27 748.787C1254.7 753.109 1273.04 769.493 1275.65 804.651C1276.41 814.799 1275.28 826.267 1272.94 838.265C1264 883.957 1230.8 933.127 1184.31 1014.22L1184.33 1014.22Z" stroke="#8F56E9" stroke-width="4" stroke-miterlimit="10"/>
<path d="M1202.27 1019.54C988.037 1400.94 1113.41 1103.36 1004.24 1179.63C950.066 1217.71 953.418 1226.6 948.563 1196.84C946.037 1181.35 941.604 1155.81 927.105 1119.5C911.464 1080.3 887.152 1028.95 847.761 967.383C780.721 862.58 812.297 839.568 872.68 833.847C931.901 828.237 1018.08 840.27 1058.82 806.988C1100.01 773.325 1190.21 726.095 1245.6 735.007C1274.22 739.505 1293.43 757.125 1295.74 795.074C1296.39 805.739 1295.24 817.803 1292.77 830.635C1283.58 878.461 1250.79 933.154 1202.27 1019.54Z" stroke="#8F56E9" stroke-width="4" stroke-miterlimit="10"/>
<path d="M1220.21 1024.86C991.214 1440 1125.61 1112.29 1008.05 1195.31C949.609 1236.78 953.815 1246.76 949.414 1214.72C947.145 1198.23 942.837 1170.89 927.647 1131.81C911.544 1090.42 885.64 1036.16 842.529 970.238C768.713 857.365 802.282 833.099 866.505 827.562C929.796 822.096 1022.27 835.631 1065.1 799.538C1108.29 763.153 1204.88 711.661 1263.9 721.208C1293.71 725.952 1313.81 744.747 1315.81 785.5C1316.35 796.659 1315.16 809.332 1312.58 823.017C1303.14 872.979 1270.79 933.182 1220.21 1024.86Z" stroke="#8F56E9" stroke-width="4" stroke-miterlimit="10"/>
<path d="M1166.39 1008.9C982.161 1322.97 1088.83 1085.27 996.591 1148.27C950.899 1179.49 952.536 1186.28 946.827 1161.1C943.768 1147.62 939.039 1125.65 926.009 1094.86C911.28 1060.04 890.144 1014.53 858.234 961.664C804.73 873.046 832.336 852.496 885.03 846.419C936.08 840.535 1009.73 849.533 1046.23 821.858C1083.43 793.671 1160.81 755.084 1208.99 762.596C1235.21 766.685 1252.71 781.91 1255.6 814.258C1256.46 823.889 1255.35 834.76 1253.14 845.903C1244.45 889.459 1210.86 933.104 1166.4 1008.91L1166.39 1008.9Z" stroke="#8F56E9" stroke-width="4" stroke-miterlimit="10"/>
<path d="M1148.45 1003.58C979.536 1284.12 1076.6 1076.3 992.768 1132.61C951.345 1160.43 952.073 1166.12 945.954 1143.23C942.615 1130.75 937.743 1110.6 925.454 1082.54C911.153 1049.91 891.635 1007.33 863.453 958.8C816.7 878.31 842.338 858.956 891.192 852.695C938.175 846.689 1005.52 854.163 1039.95 829.286C1075.16 803.831 1146.12 769.509 1190.67 776.385C1215.72 780.252 1232.37 794.282 1235.52 823.822C1236.49 832.947 1235.41 843.199 1233.31 853.512C1224.87 894.932 1190.91 933.049 1148.43 1003.57L1148.45 1003.58Z" stroke="#8F56E9" stroke-width="4" stroke-miterlimit="10"/>
<path d="M1130.5 998.265C977.157 1245.36 1064.39 1067.33 988.953 1116.93C951.798 1141.35 951.585 1145.94 945.103 1125.36C941.484 1113.87 936.444 1095.53 924.921 1070.22C911.06 1039.78 893.137 1000.14 868.693 955.934C828.681 883.585 852.362 865.414 897.388 858.979C940.292 852.84 1001.39 858.806 1033.68 836.712C1065.97 814.619 1131.47 783.941 1172.39 790.16C1196.24 793.793 1212.1 806.669 1215.47 833.394C1216.56 842.012 1215.5 851.658 1213.53 861.115C1205.32 900.391 1171.02 932.987 1130.52 998.24L1130.5 998.265Z" stroke="#8F56E9" stroke-width="4" stroke-miterlimit="10"/>
<path d="M1112.56 992.946C975.112 1206.76 1052.16 1058.36 985.127 1101.24C952.242 1122.28 951.062 1125.76 944.239 1107.48C940.317 1096.97 935.123 1080.46 924.379 1057.9C910.924 1029.65 894.646 992.988 873.925 953.08C840.614 888.922 862.379 871.906 903.563 865.264C942.377 859.006 997.215 863.443 1027.38 844.153C1057.55 824.864 1116.77 798.379 1154.06 803.961C1176.73 807.363 1191.82 819.067 1195.38 842.993C1196.6 851.114 1195.53 860.157 1193.7 868.767C1185.74 905.898 1151.12 932.958 1112.56 992.946Z" stroke="#8F56E9" stroke-width="4" stroke-miterlimit="10"/>
<path d="M1094.62 987.627C973.46 1168.35 1039.95 1049.4 981.304 1085.57C952.699 1103.22 950.497 1105.58 943.367 1089.61C939.131 1080.09 933.762 1065.41 923.825 1045.58C910.766 1019.53 896.111 985.844 879.144 950.216C852.52 894.295 872.375 878.401 909.717 871.553C944.454 865.185 993.025 868.103 1021.09 851.594C1049.15 835.084 1102.07 812.816 1135.75 817.772C1157.23 820.929 1171.58 831.473 1175.32 852.59C1176.65 860.203 1175.6 868.64 1173.89 876.407C1166.15 911.405 1131.29 932.933 1094.63 987.637L1094.62 987.627Z" stroke="#8F56E9" stroke-width="4" stroke-miterlimit="10"/>
<path d="M1076.68 982.308C994.258 1143.45 1027.74 1040.45 977.49 1069.9C953.156 1084.15 949.899 1085.42 942.516 1071.74C937.922 1063.22 932.387 1050.36 923.283 1033.27C910.576 1009.42 897.584 978.766 884.388 947.372C864.378 899.753 882.395 884.915 915.904 877.848C946.577 871.38 988.891 872.769 1014.8 859.045C1042.1 844.589 1087.39 827.242 1117.45 831.572C1137.74 834.495 1151.41 843.858 1155.24 862.177C1156.73 869.29 1155.65 877.114 1154.07 884.026C1146.56 916.869 1104.22 928.467 1076.68 982.308Z" stroke="#8F56E9" stroke-width="4" stroke-miterlimit="10"/>
<path d="M1058.74 976.989C991.104 1104.66 1015.54 1031.5 973.667 1054.23C953.615 1065.11 949.215 1065.29 941.643 1053.87C936.66 1046.36 930.972 1035.34 922.741 1020.96C910.354 999.334 899.008 971.751 889.62 944.518C876.114 905.293 892.405 891.441 922.079 884.134C948.668 877.59 984.748 877.447 1008.52 866.473C1033.85 854.79 1072.71 841.654 1099.14 845.361C1118.24 848.04 1131.29 856.238 1135.17 871.751C1136.83 878.362 1135.7 885.565 1134.25 891.644C1126.93 922.348 1084.55 928.22 1058.72 976.98L1058.74 976.989Z" stroke="#8F56E9" stroke-width="4" stroke-miterlimit="10"/>
<path d="M1040.79 971.671C987.058 1065.46 1003.37 1022.57 969.84 1038.54C954.093 1046.05 948.48 1045.2 940.779 1035.99C935.365 1029.52 929.523 1020.33 922.185 1008.63C910.059 989.285 900.296 964.808 894.848 941.642C887.628 910.962 902.437 897.965 928.253 890.42C950.774 883.832 980.607 882.147 1002.24 873.912C1025.63 865.011 1058.03 856.067 1080.86 859.157C1098.78 861.591 1111.25 868.606 1115.13 881.345C1116.97 887.441 1115.76 894.049 1114.45 899.282C1107.32 927.836 1065.64 928.316 1040.81 971.68L1040.79 971.671Z" stroke="#8F56E9" stroke-width="4" stroke-miterlimit="10"/>
<path d="M1022.84 966.364C973.482 1018.81 991.218 1013.72 966.016 1022.88C954.567 1027.04 947.703 1025.21 939.918 1018.13C934.028 1012.78 928.028 1005.38 921.644 996.321C909.672 979.304 901.283 957.969 900.079 938.788C898.692 916.775 912.468 904.567 934.428 896.706C952.892 890.084 976.469 886.868 995.944 881.352C1017.38 875.291 1043.34 870.47 1062.53 872.959C1079.27 875.125 1091.27 880.935 1095.03 890.934C1097.12 896.484 1095.78 902.515 1094.63 906.912C1087.63 933.289 1053.62 933.668 1022.84 966.364Z" stroke="#8F56E9" stroke-width="4" stroke-miterlimit="10"/>
<path d="M1074.96 900.508C1071.36 893.164 1059.78 888.635 1044.22 886.748C1028.66 884.861 1009.13 885.593 989.648 888.793C950.671 895.183 911.858 911.381 905.301 935.946C901.311 950.88 909.086 969.526 921.092 984.021C933.098 998.516 949.313 1008.86 962.193 1007.21C979.107 1005.05 975.721 984.073 1004.9 961.045C1036.32 936.239 1067.89 938.737 1074.8 914.542C1075.81 910.991 1077.38 905.48 1074.95 900.521L1074.96 900.508Z" stroke="#8F56E9" stroke-width="4" stroke-miterlimit="10"/>
<path d="M909.258 1421.46C965.055 1463.26 1054.6 1571 1056.02 1645.48C1057.44 1719.96 970.729 1761.17 674.017 1669.92C80.6138 1487.41 552.496 1572.77 417 1444.09C349.245 1379.74 336.539 1389.83 376.511 1379.89C396.505 1374.92 429.676 1364.95 475.72 1338.18C521.763 1311.4 580.698 1267.82 652.233 1195.65C776.624 1070.1 812.983 1105.65 832.185 1183.05C851.387 1260.45 853.453 1379.68 909.25 1421.48L909.258 1421.46Z" stroke="#8F56E9" stroke-width="4" stroke-miterlimit="10"/>
<path d="M675.992 1651.29C118.519 1476.75 559.063 1559.13 431.708 1437.47C368.054 1376.71 356.25 1385.78 393.919 1375.77C412.86 1370.75 444.264 1360.98 487.724 1335.39C531.708 1309.48 587.963 1267.85 655.981 1200.25C773.491 1082.62 808.399 1116.67 827.115 1190.24C845.687 1263.61 848.11 1376.41 900.8 1416.62C953.529 1456.96 1037.74 1559.16 1039.13 1629.96C1039.81 1663.77 1021.99 1690.28 973.844 1700.13C961.394 1702.68 946.926 1704.01 930.441 1704.07C873.14 1704.19 792.094 1687.63 675.992 1651.29Z" stroke="#8F56E9" stroke-width="4" stroke-miterlimit="10"/>
<path d="M677.974 1632.68C156.428 1466.22 565.643 1545.5 446.444 1430.86C386.884 1373.71 375.997 1381.73 411.348 1371.69C429.242 1366.6 458.894 1357.03 499.742 1332.62C540.589 1308.2 595.47 1268.13 659.742 1204.87C770.764 1095.58 803.835 1127.69 822.058 1197.44C840 1266.78 842.781 1373.14 892.341 1411.77C941.996 1450.67 1020.88 1547.32 1022.24 1614.44C1022.93 1647.03 1006.12 1672.42 960.765 1682.11C948.85 1684.66 934.973 1685.9 919.332 1685.94C864.191 1685.9 788.451 1667.92 677.967 1632.66L677.974 1632.68Z" stroke="#8F56E9" stroke-width="4" stroke-miterlimit="10"/>
<path d="M679.956 1614.07C194.316 1455.76 572.224 1531.87 461.16 1424.27C405.701 1370.69 395.722 1377.68 428.763 1367.59C445.611 1362.44 473.489 1353.08 511.76 1329.84C551.606 1305.65 602.859 1268.29 663.504 1209.48C767.831 1108.33 799.25 1138.71 816.981 1204.64C834.285 1269.97 837.431 1369.87 883.884 1406.93C930.47 1444.37 1004.02 1535.48 1005.35 1598.94C1006.07 1630.32 990.232 1654.59 947.708 1664.12C936.305 1666.67 923.034 1667.87 908.244 1667.84C855.24 1667.74 784.837 1648.26 679.942 1614.06L679.956 1614.07Z" stroke="#8F56E9" stroke-width="4" stroke-miterlimit="10"/>
<path d="M685.902 1558.24C307.866 1425.18 591.972 1491.01 505.34 1404.47C462.17 1361.69 454.955 1365.52 481.027 1355.34C494.759 1349.98 517.288 1341.16 547.813 1321.54C581.456 1299.92 624.984 1268.79 674.78 1223.37C758.981 1146.6 785.757 1171.74 801.803 1226.28C817.436 1279.47 821.573 1359.96 858.544 1392.43C896.048 1425.37 953.378 1500.02 954.725 1552.41C955.44 1580.17 942.647 1601.17 908.544 1610.11C898.7 1612.69 887.218 1613.65 874.994 1613.52C828.439 1613.01 774.07 1589.26 685.895 1558.22L685.902 1558.24Z" stroke="#8F56E9" stroke-width="4" stroke-miterlimit="10"/>
<path d="M683.92 1576.85C270.035 1435.22 585.392 1504.64 490.618 1411.09C443.354 1364.7 435.222 1369.61 463.605 1359.45C478.383 1354.16 502.7 1345.17 535.788 1324.34C571.503 1301.86 617.602 1268.65 671.019 1218.76C761.95 1133.85 790.299 1160.74 806.86 1219.08C823.102 1276.31 826.873 1363.25 866.981 1397.28C907.546 1431.69 970.329 1511.85 971.595 1567.94C972.354 1596.9 958.504 1618.99 921.601 1628.13C911.23 1630.7 899.156 1631.75 886.089 1631.64C837.389 1631.27 777.663 1608.93 683.92 1576.85Z" stroke="#8F56E9" stroke-width="4" stroke-miterlimit="10"/>
<path d="M681.938 1595.46C232.194 1445.42 578.818 1518.25 475.888 1417.68C424.524 1367.71 415.461 1373.65 446.184 1363.52C461.986 1358.3 488.091 1349.11 523.777 1327.1C561.565 1303.77 610.241 1268.46 667.264 1214.13C764.904 1121.09 794.849 1149.72 811.923 1211.87C828.76 1273.13 832.194 1366.53 875.446 1402.11C919.051 1438 987.183 1523.67 988.48 1583.44C989.212 1613.61 974.368 1636.79 934.651 1646.13C923.775 1648.69 911.095 1649.81 897.17 1649.75C846.324 1649.52 781.257 1628.6 681.938 1595.46Z" stroke="#8F56E9" stroke-width="4" stroke-miterlimit="10"/>
<path d="M687.884 1539.64C345.652 1415.33 598.738 1477.19 520.069 1397.88C481.1 1358.6 474.716 1361.44 498.448 1351.27C511.149 1345.82 531.897 1337.19 559.817 1318.8C591.394 1298.01 632.323 1268.98 678.541 1228.02C756.005 1159.36 781.214 1182.78 796.732 1233.51C811.763 1282.65 816.25 1356.71 850.078 1387.6C884.536 1419.08 936.496 1488.19 937.832 1536.93C938.56 1563.46 926.754 1583.42 895.465 1592.13C886.149 1594.71 875.257 1595.6 863.898 1595.44C819.489 1594.78 770.482 1569.65 687.877 1539.65L687.884 1539.64Z" stroke="#8F56E9" stroke-width="4" stroke-miterlimit="10"/>
<path d="M689.866 1521.03C383.385 1405.71 605.347 1463.54 534.783 1391.29C499.916 1355.59 494.457 1357.33 515.862 1347.17C527.532 1341.63 546.465 1333.19 571.835 1316.02C601.34 1296.05 639.677 1269.14 682.302 1232.64C752.995 1172.08 776.672 1193.79 791.676 1240.7C806.091 1285.82 810.936 1353.41 841.634 1382.76C873.045 1412.78 919.65 1476.35 920.954 1521.41C921.688 1546.75 910.904 1565.66 882.422 1574.11C873.625 1576.72 863.347 1577.52 852.825 1577.32C810.56 1576.52 766.923 1550.01 689.873 1521.01L689.866 1521.03Z" stroke="#8F56E9" stroke-width="4" stroke-miterlimit="10"/>
<path d="M691.848 1502.42C421.072 1396.35 611.948 1449.9 549.512 1384.7C518.767 1352.58 514.211 1353.2 533.283 1343.1C543.922 1337.46 561.053 1329.18 583.859 1313.26C611.285 1294.12 647.024 1269.32 686.07 1237.27C749.977 1184.82 772.136 1204.82 786.618 1247.94C800.424 1289.02 805.62 1350.18 833.196 1377.94C860.773 1405.7 902.803 1464.56 904.097 1505.93C904.843 1530.05 895.052 1547.97 869.379 1556.13C861.101 1558.76 851.422 1559.46 841.764 1559.23C801.652 1558.28 763.383 1530.44 691.875 1502.43L691.848 1502.42Z" stroke="#8F56E9" stroke-width="4" stroke-miterlimit="10"/>
<path d="M693.829 1483.81C458.661 1387.35 618.557 1436.25 564.248 1378.09C537.605 1349.56 533.967 1349.03 550.712 1339.01C560.333 1333.25 575.635 1325.15 595.87 1310.5C621.217 1292.15 654.328 1269.5 689.824 1241.9C746.89 1197.52 767.565 1215.85 781.555 1255.15C794.738 1292.19 800.305 1346.92 824.738 1373.1C849.172 1399.27 885.942 1452.72 887.205 1490.4C887.964 1513.31 879.186 1530.27 856.301 1538.11C848.535 1540.78 839.448 1541.36 830.648 1541.12C792.689 1540.01 759.809 1510.87 693.829 1483.81Z" stroke="#8F56E9" stroke-width="4" stroke-miterlimit="10"/>
<path d="M695.812 1465.2C496.139 1378.77 625.159 1422.62 578.964 1371.5C556.435 1346.56 553.709 1344.82 568.127 1334.92C576.717 1329.03 590.182 1321.09 607.888 1307.73C631.143 1290.17 661.619 1269.65 693.586 1246.51C743.761 1210.2 762.988 1226.85 776.485 1262.34C789.038 1295.35 794.962 1343.64 816.28 1368.25C837.598 1392.86 869.082 1440.88 870.307 1474.9C871.092 1496.59 863.321 1512.61 843.23 1520.11C835.984 1522.81 827.495 1523.29 819.546 1523.02C783.726 1521.75 756.241 1491.36 695.804 1465.22L695.812 1465.2Z" stroke="#8F56E9" stroke-width="4" stroke-miterlimit="10"/>
<path d="M697.794 1446.59C524.392 1394.72 631.753 1409 593.692 1364.91C575.265 1343.56 573.431 1340.58 585.548 1330.84C593.094 1324.78 604.737 1317.01 619.899 1304.96C641.047 1288.15 668.846 1269.82 697.332 1251.16C740.541 1222.85 758.396 1237.89 771.413 1269.56C783.329 1298.56 789.625 1340.42 807.815 1363.42C826.975 1387.65 852.236 1429.04 853.422 1459.4C854.22 1479.88 847.488 1495.02 830.166 1502.1C823.439 1504.85 815.549 1505.21 808.465 1504.91C774.804 1503.47 755.732 1463.93 697.794 1446.59Z" stroke="#8F56E9" stroke-width="4" stroke-miterlimit="10"/>
<path d="M699.776 1427.98C561.965 1384.59 638.348 1395.37 608.407 1358.31C594.074 1340.56 593.104 1336.26 602.962 1326.75C609.444 1320.49 619.257 1312.9 631.91 1302.2C650.932 1286.1 676.004 1269.95 701.086 1255.78C737.217 1235.4 753.79 1248.91 766.35 1276.77C777.6 1301.74 784.275 1337.2 799.371 1358.58C815.448 1381.38 835.404 1417.22 836.544 1443.88C837.369 1463.15 831.669 1477.47 817.115 1484.1C810.914 1486.93 803.625 1487.12 797.384 1486.79C765.863 1485.16 752.414 1444.54 699.783 1427.97L699.776 1427.98Z" stroke="#8F56E9" stroke-width="4" stroke-miterlimit="10"/>
<path d="M701.757 1409.38C599.784 1373.51 644.92 1381.79 623.143 1351.7C612.911 1337.58 612.729 1331.9 620.391 1322.66C625.773 1316.17 633.756 1308.76 643.927 1299.42C660.76 1283.99 683.065 1269.96 704.861 1260.41C733.727 1247.75 749.19 1259.96 761.286 1283.98C771.842 1304.94 778.902 1333.97 790.919 1353.76C803.907 1375.15 818.571 1405.39 819.665 1428.4C820.517 1446.47 815.877 1460.01 804.05 1466.13C798.389 1469.04 791.672 1469.05 786.288 1468.71C756.913 1466.86 748.894 1425.96 701.75 1409.39L701.757 1409.38Z" stroke="#8F56E9" stroke-width="4" stroke-miterlimit="10"/>
<path d="M703.725 1390.76C643.203 1351.71 651.43 1368.23 637.859 1345.11C631.692 1334.6 632.243 1327.52 637.798 1318.58C641.99 1311.82 648.186 1304.58 655.938 1296.66C670.506 1281.8 689.97 1269.69 708.616 1265.03C730.014 1259.68 744.514 1271.02 756.222 1291.19C766.078 1308.15 773.51 1330.76 782.461 1348.91C792.303 1368.89 801.746 1393.56 802.774 1412.88C803.673 1429.73 800.134 1442.59 790.98 1448.09C785.899 1451.15 779.727 1450.93 775.193 1450.59C747.987 1448.49 741.454 1415.11 703.725 1390.76Z" stroke="#8F56E9" stroke-width="4" stroke-miterlimit="10"/>
<path d="M777.93 1430.09C784.502 1425.22 786.857 1413.01 785.896 1397.37C784.935 1381.72 780.678 1362.65 774.003 1344.07C760.661 1306.89 737.703 1271.66 712.356 1269.65C696.946 1268.43 680.016 1279.46 667.935 1293.89C655.854 1308.32 648.615 1326.14 652.574 1338.51C657.755 1354.75 677.776 1347.63 705.708 1372.15C735.793 1398.56 739.054 1430.06 764.099 1432.47C767.775 1432.83 773.478 1433.37 777.916 1430.08L777.93 1430.09Z" stroke="#8F56E9" stroke-width="4" stroke-miterlimit="10"/>
</g>
</svg>
